<?xml version="1.0" encoding="UTF-8" standalone="no"?> 

<svg width="64" height="64" viewBox="0 0 64 64" fill="none" xmlns="http://www.w3.org/2000/svg">
<g id="cast" class="icon">
    <path d="M55.0699 10H12.6099C10.7728 10.0026 9.01166 10.7336 7.7126 12.0327C6.41355 13.3317 5.68258 15.0929 5.67993 16.93C5.67993 17.4604 5.89065 17.9691 6.26572 18.3442C6.64079 18.7193 7.1495 18.93 7.67993 18.93C8.21036 18.93 8.71907 18.7193 9.09415 18.3442C9.46922 17.9691 9.67993 17.4604 9.67993 16.93C9.67993 16.1529 9.98863 15.4077 10.5381 14.8582C11.0876 14.3087 11.8328 14 12.6099 14H55.0699C55.847 14 56.5923 14.3087 57.1418 14.8582C57.6912 15.4077 57.9999 16.1529 57.9999 16.93V43.39C57.9999 44.1671 57.6912 44.9123 57.1418 45.4618C56.5923 46.0113 55.847 46.32 55.0699 46.32H39.0699C38.5395 46.32 38.0308 46.5307 37.6557 46.9058C37.2806 47.2809 37.0699 47.7896 37.0699 48.32C37.0699 48.8504 37.2806 49.3591 37.6557 49.7342C38.0308 50.1093 38.5395 50.32 39.0699 50.32H55.0699C56.9071 50.3174 58.6682 49.5864 59.9673 48.2873C61.2663 46.9883 61.9973 45.2271 61.9999 43.39V16.93C61.9973 15.0929 61.2663 13.3317 59.9673 12.0327C58.6682 10.7336 56.9071 10.0026 55.0699 10V10Z" fill="black"/>
<path d="M7.67993 22C7.1495 22 6.64079 22.2107 6.26572 22.5858C5.89065 22.9609 5.67993 23.4696 5.67993 24C5.67993 24.5304 5.89065 25.0391 6.26572 25.4142C6.64079 25.7893 7.1495 26 7.67993 26C13.5996 26 19.2767 28.3516 23.4626 32.5374C27.6484 36.7232 29.9999 42.4004 29.9999 48.32C29.9999 48.8504 30.2106 49.3591 30.5857 49.7342C30.9608 50.1093 31.4695 50.32 31.9999 50.32C32.5304 50.32 33.0391 50.1093 33.4141 49.7342C33.7892 49.3591 33.9999 48.8504 33.9999 48.32C33.9999 44.8636 33.3191 41.4411 31.9964 38.2478C30.6737 35.0545 28.735 32.153 26.291 29.709C23.8469 27.2649 20.9454 25.3262 17.7522 24.0035C14.5589 22.6808 11.1363 22 7.67993 22V22Z" fill="black"/>
<path d="M7.67993 28.8999C7.1495 28.8999 6.64079 29.1106 6.26572 29.4857C5.89065 29.8608 5.67993 30.3695 5.67993 30.8999C5.67993 31.4303 5.89065 31.939 6.26572 32.3141C6.64079 32.6892 7.1495 32.8999 7.67993 32.8999C11.7679 32.9052 15.687 34.5315 18.5777 37.4222C21.4683 40.3128 23.0946 44.2319 23.0999 48.3199C23.0999 48.8503 23.3106 49.359 23.6857 49.7341C24.0608 50.1092 24.5695 50.3199 25.0999 50.3199C25.6304 50.3199 26.1391 50.1092 26.5141 49.7341C26.8892 49.359 27.0999 48.8503 27.0999 48.3199C27.0946 43.171 25.0469 38.2345 21.4061 34.5937C17.7653 30.9529 12.8288 28.9052 7.67993 28.8999V28.8999Z" fill="black"/>
<path d="M7.67993 35.77C7.1495 35.77 6.64079 35.9807 6.26572 36.3558C5.89065 36.7309 5.67993 37.2396 5.67993 37.77C5.67993 38.3005 5.89065 38.8092 6.26572 39.1842C6.64079 39.5593 7.1495 39.77 7.67993 39.77C9.94591 39.7753 12.1176 40.6778 13.7199 42.2801C15.3222 43.8824 16.2246 46.054 16.2299 48.32C16.2299 48.8505 16.4406 49.3592 16.8157 49.7342C17.1908 50.1093 17.6995 50.32 18.2299 50.32C18.7604 50.32 19.2691 50.1093 19.6441 49.7342C20.0192 49.3592 20.2299 48.8505 20.2299 48.32C20.2273 44.9924 18.9042 41.8018 16.5512 39.4488C14.1982 37.0957 11.0076 35.7727 7.67993 35.77V35.77Z" fill="black"/>
<path d="M7.67993 42.6401C0.179932 42.8701 0.179932 53.7801 7.67993 54.0001C15.1799 53.7701 15.1799 42.8701 7.67993 42.6401Z" fill="transparent"/>
</g>
</svg>
