<?xml version="1.0" encoding="utf-8"?>
<!-- Generator: Adobe Illustrator 25.2.0, SVG Export Plug-In . SVG Version: 6.00 Build 0)  -->
<svg version="1.1" id="Capa_1" xmlns="http://www.w3.org/2000/svg" xmlns:xlink="http://www.w3.org/1999/xlink" x="0px" y="0px"
	 viewBox="0 0 187 187" style="enable-background:new 0 0 187 187;" xml:space="preserve">

<path d="M167,43.2c-0.1-4.5-3.2-5.8-7.2-5.8c-20.7-0.3-39.2-6.4-54.5-20.9c-2.9-2.7-5.9-2.7-8.7,0C81.3,31,62.8,37.1,42,37.3
	c-5.3,0.1-7.3,2.8-7.3,7.8c0.1,7.2,0,14.4,0,21.6c-0.2,0-0.4,0-0.6,0c0.4,7.8,0.7,15.6,1.3,23.4c3.1,39.9,23,67.2,60.8,81.1
	c2.3,0.8,4.5,1.9,7.1,0.9c28.1-10.3,49.5-27.4,58.3-57.2C168.8,91.4,167.7,67.3,167,43.2z"/>
<path class="icon" d="M118.3,76c-7.1,7.2-14.5,14.1-21.3,21.5c-3.1,3.3-4.9,3-7.5-0.2c-2.3-2.8-5.2-5.3-7.9-7.8
	c-1.9-1.7-4.2-1.8-6.3-0.6c-1.6,0.9-2.7,2.5-2.7,4.6c0,3.4,17.3,20.9,20.7,20.9c2.5-0.1,4.1-1.7,5.7-3.3c9-9,18-18.1,27.1-27.1
	c2.8-2.8,5.2-5.9,1.7-9.5C124.2,70.8,121.1,73.2,118.3,76z"/>
</svg>
