<?xml version="1.0" encoding="UTF-8" standalone="no"?> <svg xmlns="http://www.w3.org/2000/svg" width="48" height="36" viewBox="0 0 48 36">
  <defs>
    <style>
      .a {
        fill: #d3d4ed;
      }
    </style>
  </defs>
  <title>5 Sound_2</title>
  <g>
    <path class="a" d="M21.18.62l-10.46,8A2,2,0,0,1,9.51,9H5a5,5,0,0,0-5,5v8a5,5,0,0,0,5,5H9.51a2,2,0,0,1,1.21.41l10.46,8A3,3,0,0,0,26,33V3A3,3,0,0,0,21.18.62Z"/>
    <path class="a" d="M40.43,33.43A2,2,0,0,1,39,30,17,17,0,0,0,39,6a2,2,0,1,1,2.82-2.84,21,21,0,0,1,0,29.7A2,2,0,0,1,40.43,33.43Z"/>
    <path class="a" d="M34.78,27.78a2,2,0,0,1-1.41-3.41,9,9,0,0,0,0-12.74,2,2,0,0,1,2.82-2.82,13,13,0,0,1,0,18.38A2,2,0,0,1,34.78,27.78Z"/>
  </g>
</svg>
