<?xml version="1.0" encoding="UTF-8" standalone="no"?> <svg xmlns="http://www.w3.org/2000/svg" width="48" height="36" viewBox="0 0 48 36">
  <defs>
    <style>
      .a {
        fill: #d3d4ed;
      }
    </style>
  </defs>
  <title>8 Sound_5</title>
  <g>
    <path class="a" d="M21.18.62l-10.46,8A2,2,0,0,1,9.51,9H5a5,5,0,0,0-5,5v8a5,5,0,0,0,5,5H9.51a2,2,0,0,1,1.21.41l10.46,8A3,3,0,0,0,26,33V3A3,3,0,0,0,21.18.62Z"/>
    <path class="a" d="M43.88,18l3.53-3.54a2,2,0,0,0-2.82-2.82l-3.54,3.53-3.54-3.53a2,2,0,1,0-2.82,2.82L38.22,18l-3.53,3.54a2,2,0,1,0,2.82,2.82l3.54-3.53,3.54,3.53a2,2,0,0,0,2.82-2.82Z"/>
  </g>
</svg>
